<?xml version="1.0" encoding="UTF-8" standalone="no"?>
<svg
   height="32"
   viewBox="0 -960 1280 1280"
   width="32"
   fill="#1f1f1f"
   version="1.1"
   id="svg1"
   sodipodi:docname="icon.svg"
   inkscape:version="1.4.2 (ebf0e94, 2025-05-08)"
   xmlns:inkscape="http://www.inkscape.org/namespaces/inkscape"
   xmlns:sodipodi="http://sodipodi.sourceforge.net/DTD/sodipodi-0.dtd"
   xmlns="http://www.w3.org/2000/svg"
   xmlns:svg="http://www.w3.org/2000/svg">
  <defs
     id="defs1" />
  <sodipodi:namedview
     id="namedview1"
     pagecolor="#ffffff"
     bordercolor="#000000"
     borderopacity="0.25"
     inkscape:showpageshadow="2"
     inkscape:pageopacity="0.0"
     inkscape:pagecheckerboard="0"
     inkscape:deskcolor="#d1d1d1"
     showgrid="true"
     inkscape:zoom="16.416667"
     inkscape:cx="13.918782"
     inkscape:cy="8.5279188"
     inkscape:window-width="1920"
     inkscape:window-height="1010"
     inkscape:window-x="1529"
     inkscape:window-y="66"
     inkscape:window-maximized="1"
     inkscape:current-layer="svg1">
    <inkscape:grid
       id="grid1"
       units="px"
       originx="-80"
       originy="-80"
       spacingx="40"
       spacingy="40"
       empcolor="#0099e5"
       empopacity="0.30196078"
       color="#0099e5"
       opacity="0.14901961"
       empspacing="5"
       enabled="true"
       visible="true" />
  </sodipodi:namedview>
  <rect
     style="fill:#6750a4;fill-opacity:1;stroke-width:2418.9;stroke-linecap:round;stroke-linejoin:round"
     id="rect5"
     width="1280"
     height="1280"
     x="0"
     y="-960"
     ry="240" />
  <path
     d="m 240,80 v -720 q 0,-33 23.5,-56.5 Q 287,-720 320,-720 h 640 q 33,0 56.5,23.5 23.5,23.5 23.5,56.5 v 480 q 0,33 -23.5,56.5 Q 993,-80 960,-80 H 400 Z M 366,-160 H 960 V -640 H 320 v 525 z m -46,0 v -480 z"
     id="path1"
     style="fill:#ffffff;fill-opacity:1" />
  <path
     d="m 637,-240 v -80 h 240 v 80 z"
     id="path4"
     style="fill:#ffffff;fill-opacity:1" />
  <path
     d="m 457,-240 -56,-56 103,-104 -104,-104 57,-56 160,160 z"
     id="path3"
     style="fill:#ffffff;fill-opacity:1"
     inkscape:export-filename="c:\Endava\EndevLocal\promptCoach\public\assets\icons\icon-512.png"
     inkscape:export-xdpi="1536"
     inkscape:export-ydpi="1536" />
</svg>
