<?xml version="1.0" encoding="utf-8"?>
<svg xmlns="http://www.w3.org/2000/svg" width="24px" height="24px" viewBox="0 0 24 24" xmlns:bx="https://boxy-svg.com">
  <defs>
    <bx:grid x="0" y="0" width="1" height="1" divisions="2"/>
  </defs>
  <path style="fill: none; stroke: rgb(0, 0, 0); stroke-width: 2px; stroke-linejoin: round;" d="M 9 18 C 7.343 18 5.843 17.328 4.757 16.243 C 3.671 15.157 3 13.657 3 12 L 3 10.5 L 3 9 C 3 7.343 3.672 5.843 4.757 4.757 C 5.843 3.671 7.343 3 9 3 L 12 3 L 15 3 C 16.657 3 18.157 3.672 19.243 4.757 C 20.329 5.843 21 7.343 21 9 L 21 10.5 L 21 12 C 21 13.657 20.328 15.157 19.243 16.243 C 18.157 17.329 16.657 18 15 18 L 13 18 L 9.022 21 L 9 18 Z"/>
  <path d="M 13 9 C 13 7.895 13.895 7 15 7 L 15 7 C 16.105 7 17 7.895 17 9 L 17 11 C 17 12.105 16.105 13 15 13 L 15 13 C 13.895 13 13 12.105 13 11 L 13 9 Z" style="stroke-width: 2px; fill: none; stroke: rgb(0, 0, 0);"/>
  <path style="fill: none; stroke: rgb(0, 0, 0); stroke-width: 2px;" d="M 7 13 L 7 10 L 13 10"/>
</svg>