<?xml version="1.0" encoding="utf-8"?>
<svg xmlns="http://www.w3.org/2000/svg" shape-rendering="geometricPrecision" text-rendering="geometricPrecision" image-rendering="optimizeQuality" fill-rule="evenodd" clip-rule="evenodd" viewBox="0 0 24 24" width="24px" height="24px" xmlns:bx="https://boxy-svg.com">
  <path d="M 9.943 15.107 L 19.492 5.5 L 19.492 5.511 L 22.25 2.75 C 22.2 2.818 22.151 2.889 22.103 2.957 C 20.005 5.846 18.982 7.26 19.805 10.796 L 19.799 10.792 C 20.366 13.197 19.76 15.867 17.804 17.825 C 15.337 20.296 11.394 20.846 8.141 18.622 L 10.408 17.572 C 12.483 18.386 14.751 18.029 16.38 16.397 C 18.012 14.762 18.38 12.387 17.559 10.407 C 17.402 10.031 16.936 9.94 16.609 10.181 L 9.943 15.107 Z M 8.567 16.304 L 8.566 16.306 L 2.199 22 C 2.602 21.444 3.102 20.918 3.605 20.391 C 5.013 18.907 6.412 17.438 5.561 15.361 C 4.417 12.577 5.084 9.322 7.197 7.201 C 9.399 4.999 12.641 4.444 15.345 5.56 C 15.946 5.783 16.468 6.1 16.876 6.395 L 14.613 7.439 C 12.508 6.557 10.099 7.156 8.628 8.63 C 6.638 10.621 6.234 14.073 8.567 16.304 Z" style="transform-origin: -1.435px -1.221px;"/>
  <defs>
    <bx:grid x="0" y="0" width="1" height="1" divisions="4"/>
  </defs>
</svg>