<?xml version="1.0" encoding="utf-8"?>
<svg viewBox="0 0 24 24" xmlns="http://www.w3.org/2000/svg" width="24px" height="24px" xmlns:bx="https://boxy-svg.com">
  <path d="M 20.682 10.184 C 21.142 8.823 20.982 7.332 20.249 6.093 C 19.142 4.193 16.919 3.214 14.746 3.674 C 13.782 2.602 12.392 1.991 10.939 2 C 8.717 1.996 6.749 3.404 6.067 5.487 C 4.641 5.777 3.41 6.657 2.69 7.904 C 1.576 9.801 1.829 12.189 3.317 13.814 C 2.857 15.174 3.017 16.669 3.752 17.905 C 4.857 19.805 7.081 20.784 9.253 20.324 C 10.217 21.399 11.605 22.01 13.062 22 C 15.282 22.004 17.252 20.594 17.932 18.509 C 19.36 18.22 20.592 17.34 21.312 16.091 C 22.424 14.194 22.17 11.809 20.682 10.184 Z M 13.062 20.692 C 12.172 20.694 11.314 20.385 10.632 19.824 C 10.662 19.81 10.715 19.78 10.75 19.759 L 14.786 17.459 C 14.992 17.344 15.12 17.124 15.119 16.892 L 15.119 11.277 L 16.822 12.249 C 16.842 12.257 16.852 12.274 16.859 12.294 L 16.859 16.944 C 16.852 19.012 15.159 20.689 13.062 20.692 Z M 4.902 17.254 C 4.456 16.494 4.296 15.604 4.447 14.742 C 4.477 14.76 4.531 14.791 4.567 14.814 L 8.603 17.114 C 8.809 17.231 9.063 17.231 9.267 17.114 L 14.194 14.304 L 14.194 16.249 C 14.195 16.269 14.186 16.289 14.172 16.301 L 10.091 18.624 C 8.273 19.657 5.953 19.044 4.903 17.254 L 4.902 17.254 Z M 3.839 8.56 C 4.283 7.8 4.983 7.217 5.814 6.917 C 5.814 6.951 5.813 7.012 5.813 7.054 L 5.813 11.654 C 5.813 11.889 5.94 12.104 6.144 12.221 L 11.074 15.029 L 9.367 16 C 9.35 16.011 9.327 16.014 9.309 16.004 L 5.229 13.679 C 3.416 12.644 2.793 10.354 3.837 8.561 L 3.839 8.56 Z M 17.852 11.779 L 12.927 8.971 L 14.632 7.999 C 14.65 7.987 14.672 7.984 14.69 7.993 L 18.772 10.319 C 20.589 11.354 21.21 13.647 20.16 15.44 C 19.716 16.199 19.016 16.78 18.182 17.084 L 18.182 12.344 C 18.185 12.111 18.06 11.894 17.854 11.779 L 17.852 11.779 Z M 19.552 9.257 C 19.522 9.239 19.469 9.207 19.432 9.184 L 15.395 6.884 C 15.192 6.767 14.939 6.767 14.732 6.884 L 9.803 9.694 L 9.803 7.75 C 9.803 7.73 9.813 7.711 9.829 7.697 L 13.909 5.374 C 15.726 4.341 18.05 4.957 19.099 6.75 C 19.54 7.507 19.702 8.393 19.55 9.257 L 19.552 9.257 Z M 8.877 12.721 L 7.172 11.749 C 7.153 11.741 7.141 11.724 7.137 11.704 L 7.137 7.053 C 7.14 4.983 8.842 3.304 10.94 3.307 C 11.829 3.307 12.685 3.614 13.369 4.174 C 13.339 4.191 13.282 4.22 13.249 4.242 L 9.213 6.542 C 9.004 6.657 8.879 6.873 8.881 7.107 L 8.877 12.72 L 8.877 12.721 Z M 9.803 10.75 L 11.999 9.499 L 14.192 10.749 L 14.192 13.25 L 11.999 14.5 L 9.803 13.25 L 9.803 10.75 Z"/>
  <defs>
    <bx:grid x="0" y="0" width="1" height="1" divisions="2"/>
  </defs>
</svg>