<?xml version="1.0" encoding="utf-8"?>
<svg height="24px" viewBox="0 0 24 24" width="24px" xmlns="http://www.w3.org/2000/svg" xmlns:bx="https://boxy-svg.com">
  <g fill="none" fill-rule="evenodd" transform="matrix(0.0875, 0, 0, 0.0875, 9.146268, 22.872727)" style="transform-origin: -7.90002px -22.9px;">
    <circle cx="68" cy="39" fill="#ea4335" r="12"/>
    <circle cx="68" cy="89" fill="#ea4335" r="12"/>
    <circle cx="68" cy="139" fill="#ea4335" r="12"/>
    <circle cx="68" cy="189" fill="#ea4335" r="12"/>
    <g fill="#fbbc04">
      <circle cx="111" cy="14" r="14"/>
      <circle cx="111" cy="64" r="14"/>
      <circle cx="111" cy="114" r="14"/>
      <circle cx="111" cy="164" r="14"/>
      <circle cx="111" cy="215" r="14"/>
    </g>
    <circle cx="153.5" cy="39.5" fill="#34a853" r="16.5"/>
    <circle cx="153.5" cy="89.5" fill="#34a853" r="16.5"/>
    <circle cx="153.5" cy="139.5" fill="#34a853" r="16.5"/>
    <circle cx="153.5" cy="189.5" fill="#34a853" r="16.5"/>
    <g fill="#4285f4">
      <circle cx="196" cy="64" r="19"/>
      <circle cx="25" cy="64" r="10"/>
      <circle cx="25" cy="114" r="10"/>
      <circle cx="25" cy="164" r="10"/>
      <circle cx="196" cy="114" r="19"/>
      <circle cx="196" cy="164" r="19"/>
    </g>
  </g>
  <defs>
    <bx:grid x="0" y="0" width="1" height="1" divisions="2"/>
  </defs>
</svg>